{"glyphs":{"阿":{"ha":1389,"x_min":219,"x_max":1349,"o":"m 325 874 q 469 926 399 872 q 530 957 510 957 q 592 940 550 957 q 635 909 635 924 q 614 882 635 894 q 504 781 550 844 q 458 699 458 717 q 469 664 458 682 q 508 609 479 646 q 538 508 538 572 q 519 429 538 460 q 486 399 500 399 q 463 415 472 399 q 410 484 435 464 q 385 512 385 504 q 392 519 385 519 q 421 515 400 519 q 463 510 442 510 q 483 526 483 510 q 467 581 483 543 q 437 635 450 618 q 424 681 424 651 q 444 772 424 711 q 474 845 465 832 q 483 865 483 858 q 478 871 483 871 q 465 868 474 871 q 326 835 390 846 q 329 583 329 744 q 327 255 329 422 q 313 35 325 88 q 291 -33 301 -17 q 272 -49 281 -49 q 238 6 256 -49 q 219 92 219 61 q 240 164 219 124 q 258 308 250 185 q 267 580 267 431 q 260 771 267 729 q 236 836 253 813 q 219 874 219 860 q 249 894 219 894 q 325 874 278 894 m 978 767 q 758 733 861 756 q 626 710 656 710 q 574 724 597 710 q 550 747 550 738 q 607 764 550 764 q 822 794 642 764 q 1098 845 1001 824 q 1238 867 1194 867 q 1309 844 1269 867 q 1349 807 1349 821 q 1218 778 1349 778 l 1157 779 q 1018 771 1104 779 q 1092 731 1072 746 q 1111 705 1111 717 q 1106 679 1111 693 q 1090 519 1090 639 q 1097 258 1090 400 l 1108 39 q 1076 -90 1108 -25 q 1011 -156 1043 -156 q 976 -131 989 -156 q 874 -3 943 -64 q 851 23 851 17 q 862 29 851 29 q 910 19 872 29 q 968 8 947 8 q 1001 22 989 8 q 1019 159 1013 35 q 1025 376 1025 283 q 1017 585 1025 468 q 999 728 1008 701 q 978 767 989 756 m 650 564 q 728 572 683 560 q 797 598 774 583 q 834 613 821 613 q 893 586 847 613 q 939 544 939 560 q 920 515 939 529 q 881 463 901 500 q 860 408 860 425 q 867 388 860 392 q 885 361 885 375 q 838 336 885 339 q 679 319 792 333 q 671 278 676 296 q 651 260 665 260 q 628 283 638 260 q 618 346 618 307 l 619 390 q 610 480 619 432 q 591 544 601 528 q 581 572 581 561 q 597 582 581 582 q 650 564 613 582 m 679 364 q 772 380 747 372 q 806 401 797 388 q 819 455 814 415 q 824 515 824 494 q 817 542 824 536 q 794 549 811 549 q 667 526 761 549 q 679 364 675 464 z "},"爱":{"ha":1389,"x_min":172,"x_max":1324,"o":"m 965 949 q 915 925 965 932 q 779 892 865 918 q 613 850 693 865 q 506 835 532 835 q 481 842 481 835 q 503 856 481 850 q 715 933 621 889 q 815 994 810 976 q 837 1013 821 1013 q 909 988 853 1013 q 965 949 965 964 m 1044 842 q 945 742 1044 819 q 821 664 846 664 q 814 669 814 664 q 849 718 814 683 q 909 798 883 753 q 933 853 935 843 q 931 869 931 864 q 947 886 931 886 q 1003 872 963 886 q 1044 842 1044 857 m 750 743 q 741 710 750 728 q 718 692 732 692 q 668 742 690 692 q 646 807 646 793 q 664 818 646 818 q 716 798 682 818 q 750 743 750 778 m 571 688 q 539 646 571 646 q 516 653 528 646 q 478 708 504 660 q 451 774 451 756 q 467 786 451 786 q 526 759 482 786 q 571 688 571 732 m 368 581 q 515 599 417 585 l 725 628 q 951 659 871 653 q 1066 678 1031 665 q 1118 690 1101 690 q 1214 646 1149 690 q 1279 581 1279 601 q 1244 560 1279 560 q 1162 546 1208 560 q 1089 520 1115 532 q 1053 508 1063 508 q 1044 515 1044 508 q 1060 539 1044 521 q 1088 579 1075 557 q 1101 606 1101 601 q 1051 621 1101 621 q 574 572 867 621 q 413 549 442 549 q 371 550 385 549 q 326 436 361 499 q 269 374 292 374 q 247 415 247 374 q 264 482 247 456 q 299 549 281 508 q 322 610 317 590 q 338 629 328 629 q 368 581 349 629 m 831 83 q 1047 -29 967 0 q 1281 -79 1128 -58 q 1324 -97 1324 -85 q 1307 -110 1324 -104 q 1197 -129 1290 -115 q 1065 -143 1104 -143 q 1003 -133 1025 -143 q 913 -71 981 -122 q 782 36 844 -19 q 594 -63 697 -32 q 414 -94 490 -94 q 381 -85 381 -94 q 424 -64 381 -75 q 590 -8 496 -49 q 738 78 685 32 q 543 194 613 182 q 323 -25 432 46 q 181 -96 214 -96 q 172 -92 172 -96 q 214 -51 172 -79 q 415 128 321 18 q 578 375 510 238 q 460 363 493 363 q 408 371 428 363 q 388 388 388 379 q 433 399 388 396 q 597 424 479 403 q 615 496 615 474 q 613 528 615 518 q 610 544 610 538 q 630 565 610 565 q 684 553 650 565 q 718 529 718 540 q 707 502 718 518 q 675 438 696 486 q 876 478 813 464 q 968 492 939 492 q 1029 480 997 492 q 1061 457 1061 468 q 950 426 1061 436 q 651 388 879 421 q 594 274 633 340 q 721 285 643 271 q 822 313 799 300 q 864 325 846 325 q 928 298 882 325 q 974 256 974 271 q 940 224 974 242 q 868 128 929 218 q 831 83 854 107 m 774 121 q 840 251 840 196 q 832 264 840 264 q 775 257 824 264 q 704 244 726 250 q 649 239 682 239 q 583 257 615 239 q 563 224 578 246 q 658 200 626 211 q 713 167 689 189 q 774 121 738 146 z "},"吧":{"ha":1389,"x_min":133,"x_max":1356,"o":"m 653 392 q 661 212 651 264 q 694 116 671 160 q 792 47 718 72 q 958 22 867 22 q 1140 49 1049 22 q 1260 129 1231 76 q 1299 279 1289 182 q 1311 310 1301 310 q 1326 272 1324 310 q 1344 117 1333 168 q 1356 58 1356 67 q 1230 -46 1356 -10 q 989 -82 1104 -82 q 754 -33 844 -82 q 630 88 664 15 q 596 290 596 160 q 600 413 596 349 q 604 521 604 476 q 588 706 604 656 q 575 757 575 744 q 584 769 575 769 q 608 764 593 769 q 642 752 624 758 q 665 743 660 746 q 975 869 899 806 q 1022 886 996 886 q 1113 843 1049 886 q 1178 776 1178 800 q 1142 729 1178 760 q 1077 644 1107 699 q 1047 567 1047 590 q 1063 528 1047 544 q 1078 499 1078 511 q 1039 476 1078 479 q 935 460 1000 472 q 804 427 871 447 q 653 392 738 407 m 833 475 q 949 510 928 499 q 976 533 971 522 q 999 629 982 544 q 1017 747 1017 714 q 1011 788 1017 781 q 992 796 1006 796 q 818 749 957 796 q 869 688 869 713 q 864 663 869 678 q 833 475 849 617 m 786 738 q 676 701 721 718 q 654 442 660 625 q 783 465 726 451 q 794 651 794 594 q 786 738 794 707 m 221 678 q 353 717 321 689 q 413 746 386 746 q 489 716 439 746 q 539 668 539 686 q 515 626 539 650 q 482 582 490 601 q 458 509 474 563 q 442 442 442 456 q 454 413 443 428 q 465 383 465 397 q 429 361 465 369 l 254 322 q 242 219 250 242 q 222 196 233 196 q 203 210 211 196 q 189 302 194 224 q 183 392 183 381 q 169 533 183 442 q 144 649 154 625 q 133 688 133 672 q 149 703 133 703 q 187 696 165 703 q 221 678 208 689 m 254 374 q 339 395 315 383 q 370 428 363 407 q 388 530 378 450 q 399 636 399 610 q 378 663 399 663 q 240 631 343 663 q 246 540 243 603 l 254 374 z "},"把":{"ha":1389,"x_min":60,"x_max":1339,"o":"m 471 678 q 569 704 550 704 q 601 698 589 704 q 614 682 614 692 q 467 608 614 650 q 463 440 463 535 l 547 500 q 579 514 568 514 q 590 507 590 514 q 578 488 590 500 q 464 386 567 476 q 467 204 464 301 l 471 44 q 450 -76 471 -15 q 406 -137 429 -137 q 368 -103 390 -137 q 307 -15 332 -42 q 282 23 282 13 q 297 29 282 33 q 358 19 339 19 q 385 33 378 19 q 399 115 392 46 q 413 343 407 185 q 196 158 235 200 q 135 115 157 115 q 86 147 113 115 q 60 193 60 178 q 97 215 60 208 q 185 254 133 222 q 414 407 238 286 q 415 596 415 456 q 256 571 314 571 q 181 581 199 571 q 164 600 164 590 q 181 611 164 610 q 415 661 281 626 q 410 869 415 822 q 384 946 406 915 q 363 988 363 976 q 379 999 363 999 q 456 978 396 999 q 517 935 517 957 q 499 893 517 922 q 471 678 481 864 m 704 361 q 707 232 703 271 q 735 141 711 193 q 811 70 758 89 q 930 51 864 51 q 1050 60 996 51 q 1149 83 1104 68 q 1210 111 1193 99 q 1242 151 1226 124 q 1270 212 1258 178 q 1288 280 1282 246 q 1300 314 1293 314 q 1309 283 1307 314 q 1321 202 1311 251 q 1335 139 1331 153 q 1339 113 1339 125 q 1236 6 1339 40 q 987 -28 1133 -28 q 774 4 840 -28 q 676 108 708 36 q 643 307 643 179 l 649 515 q 638 613 649 593 q 618 658 618 646 q 634 669 618 669 q 686 660 650 669 q 887 708 801 681 q 1007 756 972 735 q 1047 767 1028 767 q 1126 742 1067 767 q 1185 701 1185 717 q 1149 656 1185 685 q 1082 565 1113 626 q 1051 483 1051 503 q 1070 453 1051 464 q 1089 433 1089 443 q 1050 418 1089 422 q 892 392 1011 414 q 704 361 772 369 m 860 425 q 985 459 972 443 q 1013 547 999 475 q 1028 649 1028 618 q 1024 688 1028 679 q 1002 696 1019 696 q 849 665 985 696 q 887 640 875 651 q 899 617 899 629 q 885 551 899 606 q 860 425 871 497 m 814 417 q 833 548 833 488 q 813 656 833 608 q 721 636 782 650 q 704 396 710 583 q 814 417 760 408 z "},"的":{"ha":1389,"x_min":196,"x_max":1231,"o":"m 828 638 q 869 631 843 631 q 960 644 896 631 q 1051 676 1024 658 q 1099 693 1079 693 q 1174 663 1118 693 q 1231 613 1231 633 q 1209 565 1231 592 q 1180 488 1188 539 q 1169 337 1172 438 q 1142 105 1165 236 q 1063 -83 1119 -26 q 978 -140 1007 -140 q 950 -111 958 -140 q 918 -41 942 -82 q 874 22 894 0 q 854 56 854 44 q 865 60 854 60 q 911 42 875 60 q 979 24 947 24 q 1034 62 1011 24 q 1081 237 1057 100 q 1104 467 1104 374 q 1094 585 1104 560 q 1052 611 1085 611 q 913 592 1019 611 q 885 589 897 589 q 811 615 850 589 q 708 503 763 554 q 638 451 654 451 q 632 458 632 451 q 644 479 632 465 q 845 784 786 653 q 897 942 904 915 q 890 983 890 969 q 910 997 890 997 q 980 982 929 997 q 1031 947 1031 967 q 1011 917 1031 935 q 919 776 983 889 q 828 638 890 721 m 338 600 q 478 647 438 626 q 517 657 499 657 q 584 635 535 657 q 633 589 633 613 q 618 553 633 575 q 593 333 603 531 q 558 83 583 136 q 522 31 533 31 q 486 110 504 31 q 465 143 479 143 q 432 138 450 143 q 310 124 361 119 q 287 46 301 46 q 261 69 272 46 q 250 131 250 93 l 251 236 q 240 440 251 354 q 207 557 228 526 q 196 583 196 574 q 217 592 196 592 q 263 583 239 592 q 290 589 279 586 q 392 780 360 703 q 416 877 424 857 q 408 912 408 897 q 432 926 408 926 q 503 913 456 926 q 550 883 550 899 q 526 846 550 867 q 338 600 474 799 m 313 161 q 430 186 397 186 q 474 178 463 186 q 490 169 485 169 q 516 264 510 169 q 522 451 522 358 q 517 567 522 543 q 476 592 511 592 q 392 578 457 592 q 293 560 328 564 q 308 392 301 514 q 363 408 321 394 q 425 422 404 422 q 456 415 446 422 q 467 397 467 407 q 451 379 467 386 q 393 363 436 372 q 311 357 350 354 q 314 240 314 288 q 313 161 314 193 m 767 454 q 824 440 785 454 q 884 401 863 426 q 906 343 906 376 q 895 294 906 310 q 869 278 885 278 q 836 302 853 278 q 786 379 819 326 q 753 443 753 432 q 767 454 753 454 z "},"发":{"ha":1389,"x_min":113,"x_max":1390,"o":"m 844 142 q 1022 13 922 63 q 1364 -75 1122 -37 q 1390 -92 1390 -79 q 1376 -110 1390 -104 q 1262 -133 1363 -117 q 1124 -150 1161 -150 q 1067 -144 1086 -150 q 1032 -126 1047 -139 q 940 -35 1017 -112 q 811 96 863 42 q 645 -31 742 14 q 464 -75 549 -75 q 379 -61 379 -75 q 415 -43 379 -50 q 620 29 540 -17 q 756 149 700 75 q 542 297 669 247 q 385 106 463 179 q 226 -7 307 33 q 129 -47 146 -47 q 113 -42 113 -47 q 149 -7 113 -29 q 422 253 294 88 q 613 593 550 419 q 399 544 426 560 q 333 514 346 514 q 310 535 319 514 q 301 575 301 557 q 331 619 301 593 q 383 692 360 646 q 407 789 407 739 q 401 816 407 807 q 396 835 396 825 q 415 846 396 846 q 472 819 433 846 q 511 776 511 792 q 496 744 511 760 q 419 603 481 729 l 631 650 q 688 914 688 832 q 676 964 688 944 q 665 1001 665 983 q 688 1019 665 1019 q 760 993 711 1019 q 808 939 808 967 q 800 914 808 926 q 763 820 792 901 q 713 667 735 739 q 986 713 949 713 q 1056 696 1024 713 q 1088 665 1088 679 q 1071 646 1088 651 q 994 638 1054 640 q 696 607 822 628 q 617 424 663 513 q 850 493 753 439 q 885 503 867 503 q 950 476 904 503 q 996 432 996 450 q 981 401 996 414 q 950 360 967 389 q 925 307 933 331 q 844 142 896 221 m 786 193 q 834 310 815 242 q 853 398 853 378 q 829 418 853 418 q 743 402 806 418 q 659 386 681 386 q 604 401 638 386 q 553 315 585 367 q 667 291 632 314 q 786 193 703 268 m 993 894 q 1090 865 1044 894 q 1135 788 1135 835 q 1107 756 1135 756 q 1062 772 1086 756 q 1001 816 1038 788 q 952 859 964 844 q 940 881 940 874 q 993 894 940 894 z "},"给":{"ha":1389,"x_min":129,"x_max":1410,"o":"m 463 600 q 536 737 529 696 q 563 778 543 778 q 610 753 582 778 q 639 712 639 728 q 622 684 639 696 q 585 653 604 672 q 496 556 567 635 l 338 378 q 542 426 526 426 q 565 413 565 426 q 553 399 565 404 q 366 324 417 347 q 291 283 315 301 q 253 264 267 264 q 230 290 240 264 q 219 338 219 317 q 243 369 219 360 q 335 438 290 389 q 436 563 381 486 q 261 532 329 560 q 232 525 246 525 q 211 546 218 525 q 204 581 204 567 q 232 624 204 613 q 302 675 281 642 q 361 788 324 708 q 399 917 399 868 q 397 937 399 928 q 396 954 396 946 q 417 981 396 981 q 472 948 438 981 q 506 894 506 915 q 489 867 506 881 q 314 610 472 853 q 463 600 394 600 m 889 768 q 1134 529 1025 615 q 1371 397 1243 443 q 1410 372 1410 383 q 1392 358 1410 361 q 1278 354 1374 354 q 1159 370 1182 354 q 1053 494 1136 386 q 875 736 969 603 q 665 388 772 497 q 531 278 558 278 q 521 286 521 278 q 532 304 521 294 q 742 614 647 425 q 838 890 838 803 q 834 923 838 911 q 831 942 831 935 q 853 964 831 964 q 912 941 876 964 q 947 892 947 918 q 933 858 947 878 q 889 768 919 838 m 1050 389 q 1040 374 1050 381 q 946 349 1031 367 q 790 331 861 331 q 728 340 756 331 q 701 361 701 349 q 725 376 701 374 q 890 414 793 383 q 969 426 935 426 q 1026 416 1003 426 q 1050 389 1050 406 m 681 194 q 842 207 740 190 q 992 244 943 224 q 1015 250 1004 250 q 1097 208 1046 250 q 1149 144 1149 167 q 1131 122 1149 133 q 1083 79 1114 110 q 1051 29 1051 49 q 1065 -7 1051 10 q 1079 -32 1079 -24 q 1051 -51 1079 -47 l 732 -79 q 710 -121 725 -121 q 691 -94 700 -121 q 669 6 682 -68 q 648 114 657 79 q 628 167 639 149 q 618 197 618 185 q 635 208 618 208 q 681 194 651 208 m 733 -22 q 903 -3 860 -12 q 964 19 947 6 q 990 71 981 33 q 1000 139 1000 108 q 989 175 1000 169 q 940 181 978 181 q 833 168 903 181 q 745 156 763 156 q 714 157 728 156 q 733 -22 731 57 m 553 207 q 532 186 553 197 l 428 131 q 252 34 268 46 q 220 22 236 22 q 167 58 204 22 q 129 111 129 94 q 137 123 129 121 q 185 125 144 125 q 311 147 225 125 q 510 208 397 169 q 540 215 526 215 q 553 207 553 215 z "},"过":{"ha":1389,"x_min":136,"x_max":1371,"o":"m 990 704 q 1078 723 1015 707 q 1170 739 1140 739 q 1227 719 1200 739 q 1254 682 1254 699 q 1231 657 1254 665 q 1174 652 1208 649 q 1100 656 1140 656 q 990 649 1060 656 q 1001 365 996 461 q 1006 242 1006 269 q 978 117 1006 168 q 932 65 950 65 q 897 86 914 65 q 797 194 853 140 q 782 217 782 210 q 794 224 782 224 q 835 218 807 224 q 883 213 863 213 q 912 224 903 213 q 925 381 921 236 q 928 639 929 525 q 713 596 839 622 q 656 589 685 589 q 596 608 628 589 q 564 637 564 626 q 610 650 564 647 q 928 692 775 664 q 879 974 919 915 q 865 1006 865 993 q 887 1019 865 1019 q 965 997 908 1019 q 1021 942 1021 975 q 1014 908 1021 929 q 990 704 990 836 m 485 778 q 474 732 485 753 q 442 711 464 711 q 365 792 419 711 q 310 887 310 872 q 328 901 310 901 q 428 868 372 901 q 485 778 485 835 m 435 136 q 538 107 482 128 q 831 14 736 35 q 1029 -7 925 -7 q 1204 -6 1133 -7 l 1331 -1 q 1371 -12 1371 -1 q 1226 -83 1371 -32 q 1035 -135 1081 -135 q 990 -128 1013 -135 q 801 -58 967 -122 q 540 47 635 6 q 384 89 444 89 q 236 44 324 89 q 211 39 224 39 q 160 65 183 39 q 136 102 136 90 q 167 114 136 114 q 260 130 197 114 q 344 146 322 146 q 389 144 365 146 q 351 269 382 214 q 328 358 328 317 q 341 435 328 399 q 354 478 354 472 q 349 485 354 485 q 292 461 338 485 q 258 456 281 456 q 204 465 236 456 q 172 485 172 475 q 192 501 172 496 q 326 558 276 522 q 368 576 351 576 q 428 549 385 575 q 471 503 471 524 q 463 485 471 494 q 396 349 396 411 q 406 297 396 324 q 435 136 442 203 m 654 529 q 735 495 681 529 q 789 414 789 461 q 776 372 789 389 q 750 356 763 356 q 729 363 738 356 q 699 403 721 369 q 660 474 678 436 q 643 521 643 513 q 654 529 643 529 z "},"好":{"ha":1389,"x_min":75,"x_max":1372,"o":"m 521 235 q 619 147 581 189 q 657 58 657 104 q 636 13 657 13 q 603 38 621 13 q 482 183 554 107 q 300 34 393 86 q 181 -18 207 -18 q 172 -14 172 -18 q 213 21 172 -4 q 322 106 253 46 q 444 225 392 167 q 369 296 401 272 q 342 338 342 318 q 346 383 342 358 l 363 479 q 219 433 253 450 q 164 417 186 417 q 108 444 142 417 q 75 487 75 471 q 110 503 75 503 l 151 500 q 371 528 203 500 q 408 814 408 747 q 394 903 408 881 q 381 940 381 926 q 399 953 381 953 q 465 924 417 953 q 513 864 513 894 q 504 832 513 849 q 429 539 489 799 l 567 563 q 569 610 569 588 l 567 644 q 580 661 567 661 q 628 638 593 661 q 663 592 663 615 q 651 563 663 581 q 631 503 640 544 q 521 235 592 335 m 563 531 l 418 494 l 385 340 q 399 321 385 329 q 475 268 433 299 q 563 531 538 375 m 1017 496 q 1181 526 1143 518 q 1263 535 1219 535 q 1340 509 1307 535 q 1372 469 1372 483 q 1306 449 1372 449 l 1190 451 q 1029 446 1122 451 q 1050 232 1050 349 q 998 -68 1050 10 q 918 -146 946 -146 q 896 -125 907 -146 q 853 -65 885 -104 q 800 -7 822 -26 q 778 18 778 13 q 787 24 778 24 q 830 12 796 24 q 893 0 864 0 q 938 27 922 0 q 966 114 954 54 q 978 263 978 174 q 965 439 978 351 q 790 413 863 429 q 692 396 717 396 q 649 410 668 396 q 629 432 629 424 q 674 444 629 440 q 956 485 718 447 q 901 590 938 567 q 865 624 865 614 q 894 635 865 635 q 947 621 922 635 q 1022 729 981 663 q 1064 810 1064 796 q 1043 824 1064 824 q 949 801 1022 824 q 838 763 876 779 q 798 757 821 757 q 740 775 775 757 q 706 801 706 793 q 756 812 706 808 q 896 833 806 815 q 1022 867 986 851 q 1081 883 1058 883 q 1160 851 1104 883 q 1217 797 1217 819 q 1184 769 1217 781 q 1111 728 1151 757 q 963 608 1071 700 q 1017 496 994 574 z "},"将":{"ha":1389,"x_min":131,"x_max":1376,"o":"m 888 846 q 1071 881 997 844 q 1112 892 1093 892 q 1169 860 1131 892 q 1207 812 1207 828 q 1188 788 1207 796 q 1115 731 1156 774 q 924 556 1004 611 q 777 478 844 501 q 690 454 710 454 q 671 460 671 454 q 714 490 671 469 q 904 615 829 547 q 1022 737 979 682 q 1064 803 1064 792 q 1043 811 1064 814 l 935 800 q 868 822 908 800 q 783 740 824 774 q 869 714 833 732 q 906 657 906 696 q 876 618 906 618 q 819 649 847 618 q 771 731 792 679 q 711 688 746 710 q 667 667 676 667 q 657 671 657 667 q 686 706 657 682 q 800 845 736 749 q 856 978 864 942 q 853 993 853 986 q 873 1017 853 1017 q 935 997 893 1017 q 978 965 978 978 q 974 944 978 951 l 888 846 m 488 418 q 486 642 489 521 q 478 805 483 764 q 461 883 472 846 q 440 937 450 921 q 431 963 431 953 q 452 979 431 979 q 524 953 474 979 q 574 897 574 928 q 569 876 574 888 q 553 707 557 838 q 550 39 550 576 q 531 -106 550 -60 q 492 -153 511 -153 q 462 -106 472 -153 q 451 -35 451 -60 q 463 29 451 -10 q 486 369 482 103 q 263 201 363 294 q 219 179 238 179 q 166 215 201 179 q 131 269 131 251 q 174 288 131 286 q 488 418 247 290 m 404 588 q 394 546 404 563 q 364 529 383 529 q 289 607 326 529 q 251 701 251 685 q 264 718 251 718 q 347 682 289 718 q 404 588 404 646 m 1069 439 l 1179 458 q 1271 469 1235 469 q 1342 448 1307 469 q 1376 411 1376 426 q 1310 388 1376 388 q 1260 390 1288 388 q 1186 393 1232 393 q 1069 386 1140 393 l 1092 7 q 1056 -142 1092 -87 q 1002 -197 1019 -197 q 974 -178 985 -197 q 864 -53 942 -121 q 851 -34 851 -42 q 863 -26 851 -26 q 905 -34 874 -26 q 960 -42 936 -42 q 991 -32 983 -42 q 1003 20 999 -22 q 1007 139 1007 63 l 1007 282 q 1004 381 1007 321 q 724 333 857 364 q 644 321 671 321 q 599 339 617 321 q 581 368 581 357 q 619 382 581 379 q 1000 428 739 389 q 981 515 993 494 q 968 547 968 535 q 985 558 968 558 q 1042 542 1003 558 q 1082 504 1082 526 q 1076 481 1082 494 q 1069 439 1069 468 m 731 289 q 803 264 753 289 q 854 179 854 239 q 844 138 854 153 q 819 122 835 122 q 754 191 792 122 q 717 274 717 260 q 731 289 717 289 z "},"晶":{"ha":1389,"x_min":233,"x_max":1186,"o":"m 511 892 q 656 909 572 890 q 806 954 740 928 q 841 963 822 963 q 908 936 860 963 q 957 889 957 910 q 949 865 957 879 q 919 743 921 824 q 896 514 917 582 q 853 446 875 446 q 824 478 836 446 q 803 518 813 511 q 769 525 793 525 q 569 504 704 525 q 540 458 558 458 q 522 484 529 458 q 510 615 514 510 q 497 776 507 719 q 451 869 486 832 q 440 891 440 882 q 460 900 440 900 q 511 892 479 900 m 572 540 q 726 567 625 543 q 765 569 742 569 q 797 560 789 569 q 812 551 806 551 q 822 562 818 551 q 831 619 826 572 q 836 718 836 667 q 831 815 836 769 q 816 874 825 861 q 786 888 807 888 q 622 864 722 888 q 581 860 599 860 q 550 861 564 860 q 567 713 561 797 q 663 733 614 715 q 732 751 711 751 q 762 744 753 751 q 771 728 771 736 q 718 694 771 710 q 603 678 665 678 q 569 681 583 678 q 572 540 572 604 m 810 381 q 926 401 857 383 q 1035 438 994 419 q 1082 450 1064 450 q 1143 426 1100 450 q 1186 382 1186 403 q 1179 364 1186 375 q 1154 235 1154 331 l 1160 56 q 1134 -102 1160 -43 q 1085 -161 1108 -161 q 1071 -153 1075 -161 q 1053 -99 1067 -146 q 1035 -35 1040 -53 q 1019 -8 1029 -18 q 988 1 1008 1 q 836 -17 967 1 q 806 -87 829 -87 q 783 -65 793 -87 q 772 1 772 -42 l 776 150 q 753 357 776 293 q 746 383 746 374 q 760 392 746 392 q 810 381 775 392 m 838 25 q 942 46 922 38 q 979 54 963 54 q 1031 28 1017 54 q 1057 3 1044 3 q 1081 106 1081 3 q 1074 283 1081 210 q 1056 368 1067 356 q 1013 381 1046 381 q 897 363 979 381 q 844 351 854 351 q 829 353 835 351 q 836 204 835 267 q 913 223 867 206 q 979 240 960 240 q 1013 231 999 240 q 1026 211 1026 222 q 1017 194 1026 200 q 953 178 1007 188 q 874 169 900 169 q 836 171 849 169 q 838 25 838 135 m 301 350 q 500 393 417 358 q 539 403 521 403 q 599 381 557 403 q 642 339 642 360 q 635 315 642 331 q 617 207 617 281 l 619 94 q 599 -67 619 -24 q 560 -111 578 -111 q 524 -67 547 -111 q 493 -12 501 -22 q 475 -3 485 -3 l 338 -22 q 311 -97 335 -97 q 286 -62 297 -97 q 275 35 275 -28 l 276 131 q 243 321 276 264 q 233 349 233 338 q 251 361 233 361 q 301 350 269 361 m 338 18 q 458 39 429 39 q 496 29 488 39 q 519 10 510 10 q 533 18 528 10 q 543 90 538 26 q 549 202 549 153 q 544 288 549 251 q 531 332 539 324 q 499 340 522 340 q 405 329 454 340 q 345 318 356 318 q 329 319 335 318 l 336 183 q 400 199 357 185 q 458 214 443 214 q 485 206 474 214 q 496 189 496 197 q 449 163 496 174 q 376 151 403 151 q 336 153 349 151 l 338 18 z "},"况":{"ha":1389,"x_min":174,"x_max":1313,"o":"m 864 539 q 918 491 901 510 q 935 458 935 472 q 926 425 935 443 q 896 292 908 379 q 883 140 883 204 q 918 51 883 76 q 1038 25 953 25 q 1160 40 1122 25 q 1215 92 1197 56 q 1243 185 1232 128 q 1262 243 1254 243 q 1271 213 1269 243 q 1284 135 1272 183 q 1304 65 1296 86 q 1313 31 1313 43 q 1241 -40 1313 -11 q 1078 -68 1169 -68 q 895 -24 961 -68 q 829 157 829 21 q 844 342 829 229 q 851 443 851 390 q 832 535 851 496 q 710 517 731 521 q 767 441 767 454 q 757 417 767 428 q 688 302 747 406 q 553 129 628 199 q 404 24 478 60 q 306 -11 331 -11 q 296 -5 296 -11 q 314 13 296 1 q 478 138 392 57 q 626 326 565 219 q 686 513 686 433 l 663 510 q 644 492 654 492 q 619 546 624 492 q 569 821 606 764 q 557 851 557 842 q 572 860 557 860 q 636 836 586 860 q 805 863 726 842 q 910 906 883 885 q 951 918 925 918 q 1042 885 976 918 q 1107 831 1107 853 q 1090 806 1107 819 q 1028 742 1046 768 q 992 677 1010 717 q 975 622 975 638 q 984 597 975 607 q 993 575 993 588 q 961 551 993 554 q 864 539 929 547 m 668 543 q 826 573 779 563 q 882 592 874 583 q 899 625 890 600 q 922 719 907 650 q 938 803 938 789 q 904 839 938 839 q 822 827 889 839 q 663 793 754 815 q 668 543 668 722 m 272 836 q 378 808 310 836 q 447 721 447 781 q 437 688 447 700 q 408 675 426 675 q 347 713 389 675 q 282 785 306 750 q 258 828 258 819 q 272 836 258 836 m 467 575 q 475 565 475 575 q 454 521 475 556 q 336 301 385 406 q 275 146 288 197 q 249 108 265 108 q 203 167 232 108 q 174 249 174 225 q 199 272 174 272 q 263 321 219 272 q 428 535 307 369 q 467 575 457 575 z "},"玲":{"ha":1389,"x_min":124,"x_max":1418,"o":"m 872 840 q 1131 588 1017 679 q 1386 465 1244 497 q 1418 450 1418 458 q 1406 438 1418 442 q 1328 424 1394 433 q 1231 414 1263 414 q 1180 422 1200 414 q 1144 444 1160 429 q 1085 515 1129 458 l 861 807 q 760 573 814 658 q 630 429 706 488 q 533 371 554 371 q 528 378 528 371 q 550 403 528 385 q 738 674 667 500 q 810 961 810 847 q 804 998 810 985 q 799 1024 799 1011 q 818 1038 799 1038 q 881 1017 838 1038 q 924 972 924 996 q 911 942 924 961 q 872 840 899 922 m 429 278 q 571 328 528 328 q 582 322 582 328 q 522 275 582 310 q 244 99 331 158 q 213 85 226 85 q 161 112 199 85 q 124 155 124 139 q 161 172 124 171 q 243 195 181 174 q 368 247 306 217 l 368 454 q 288 443 315 443 q 247 449 260 443 q 233 461 233 454 q 239 472 233 468 q 294 493 244 475 q 368 521 344 511 q 347 733 368 704 q 306 731 328 731 q 253 737 283 731 q 222 754 222 743 q 254 771 222 765 q 332 794 278 776 q 447 835 386 811 q 532 860 507 860 q 573 851 557 860 q 589 831 589 843 q 386 742 589 788 q 436 715 424 725 q 449 697 449 704 q 447 681 449 689 q 429 544 433 618 q 507 567 486 567 q 540 560 528 567 q 553 541 553 554 q 516 507 553 528 q 429 471 479 486 l 429 278 m 801 521 q 903 497 868 521 q 938 429 938 474 q 930 403 938 414 q 908 393 922 393 q 835 445 893 393 q 776 509 776 497 q 801 521 776 521 m 865 49 q 963 261 949 232 q 976 297 976 290 q 965 303 976 303 q 751 231 953 303 q 688 215 710 215 q 638 233 665 215 q 610 261 610 250 q 651 272 610 272 q 811 303 693 272 q 956 351 929 335 q 999 367 982 367 q 1065 335 1015 367 q 1114 283 1114 303 q 1081 254 1114 268 q 1015 202 1049 240 q 893 36 981 164 q 1006 -100 1006 -12 q 974 -143 1006 -143 q 933 -122 958 -143 q 854 -50 908 -101 l 767 36 q 732 78 732 69 q 743 86 732 86 q 800 72 754 86 q 865 49 846 57 z "},"攀":{"ha":1389,"x_min":113,"x_max":1344,"o":"m 969 764 q 1139 669 1139 749 q 1118 642 1139 642 q 1074 668 1111 642 q 969 753 1036 694 q 960 606 968 626 q 940 585 951 585 q 919 596 928 585 q 911 622 911 607 q 922 676 911 636 q 929 767 926 700 q 835 666 879 693 q 772 639 790 639 q 765 645 765 639 q 782 664 765 651 q 910 813 871 731 q 860 808 879 808 q 824 813 842 808 q 807 824 807 817 q 835 839 807 835 q 928 856 863 843 q 900 1003 919 976 q 890 1030 890 1017 q 906 1043 890 1043 q 956 1028 921 1043 q 990 986 990 1013 q 982 952 990 974 q 972 865 974 931 q 1040 883 988 868 q 1109 897 1093 897 q 1138 890 1125 897 q 1150 876 1150 883 q 969 821 1150 849 l 969 764 m 468 836 q 547 851 522 851 q 572 839 572 851 q 554 815 572 826 q 465 790 536 804 l 463 732 q 543 710 531 729 q 556 673 556 690 q 535 656 556 656 q 461 711 514 656 q 447 541 458 561 q 425 521 436 521 q 405 533 414 521 q 396 562 396 546 q 410 626 396 578 q 428 776 424 675 q 322 611 394 671 q 221 551 249 551 q 213 558 213 551 q 226 578 213 565 q 381 767 326 660 q 306 757 335 757 q 258 763 276 757 q 240 775 240 768 q 286 794 240 788 q 429 824 342 800 q 424 924 429 888 q 406 980 419 960 q 393 1010 393 1000 q 407 1019 393 1019 q 456 1004 421 1019 q 490 965 490 989 q 483 935 490 953 q 468 836 476 918 m 690 899 q 716 940 708 921 q 724 971 724 960 l 724 989 q 738 1010 724 1010 q 778 993 753 1010 q 803 965 803 976 q 785 939 803 954 q 728 876 767 924 q 770 844 754 860 q 786 808 786 828 q 769 788 786 788 q 755 792 761 788 q 726 817 749 797 q 697 843 704 838 q 594 775 614 775 q 588 782 588 775 q 603 802 588 789 q 667 867 618 815 q 604 911 661 872 q 590 926 590 921 q 600 931 590 931 q 690 899 626 931 m 704 685 q 756 610 756 646 q 738 586 756 586 q 714 600 725 586 l 672 650 q 619 606 647 622 q 582 589 590 589 q 574 596 574 589 q 594 622 574 603 q 646 676 615 642 q 610 713 632 693 q 588 738 588 732 q 594 743 588 743 q 674 710 613 743 q 700 754 700 743 q 709 788 700 788 q 738 776 718 788 q 758 751 758 764 q 744 726 758 738 q 704 685 740 726 m 804 494 q 1036 335 953 376 q 1308 249 1119 294 q 1344 231 1344 242 q 1333 222 1344 225 q 1243 207 1321 218 q 1128 196 1165 196 q 1068 207 1092 196 q 1022 239 1044 218 l 763 489 q 592 468 697 483 q 442 288 522 363 q 270 172 363 214 q 124 129 178 129 q 113 135 113 129 q 135 150 113 140 q 508 454 389 267 q 401 433 440 443 q 341 422 361 422 q 291 433 321 422 q 261 451 261 443 q 310 463 261 458 q 531 494 358 468 q 547 536 546 526 q 553 572 549 565 q 567 579 557 579 q 608 567 578 579 q 638 544 638 554 q 631 528 638 535 q 615 508 624 521 q 927 556 886 547 q 999 565 968 565 q 1048 551 1029 565 q 1067 526 1067 538 q 1049 511 1067 515 q 975 507 1031 507 q 804 494 919 507 m 740 138 q 863 157 819 147 q 949 167 907 167 q 1012 153 990 167 q 1033 126 1033 140 q 1018 105 1033 111 q 960 103 1003 99 q 860 107 917 107 q 742 100 804 107 q 743 -19 743 74 q 711 -165 743 -112 q 663 -217 679 -217 q 635 -203 646 -217 q 552 -125 583 -146 q 521 -97 521 -104 q 555 -93 521 -89 q 614 -97 589 -97 q 650 -85 639 -97 q 672 -13 661 -74 q 683 93 682 47 q 493 60 601 83 q 419 49 443 49 q 372 63 394 49 q 350 84 350 78 q 360 92 350 90 q 481 107 369 94 q 682 132 592 119 q 676 208 679 182 q 540 194 575 194 q 495 201 506 194 q 485 214 485 208 q 508 226 485 224 q 671 251 531 228 q 647 319 664 297 q 551 314 622 314 q 526 323 526 314 q 562 338 526 332 q 659 364 597 344 q 729 390 721 383 q 765 410 751 410 q 799 392 778 410 q 819 366 819 375 q 812 354 819 357 q 760 343 804 351 q 688 328 715 335 q 722 261 708 311 q 828 286 806 286 q 863 279 851 286 q 874 264 874 272 q 732 218 874 239 q 740 138 739 183 z "},"说":{"ha":1389,"x_min":78,"x_max":1383,"o":"m 1154 882 q 1138 861 1154 872 q 917 686 1104 840 q 894 675 904 675 q 885 683 885 675 q 896 704 885 692 q 1017 904 1017 839 q 1015 922 1017 915 q 1013 933 1013 929 q 1038 953 1013 953 q 1108 926 1063 953 q 1154 882 1154 900 m 357 876 q 478 849 429 876 q 528 778 528 822 q 516 744 528 757 q 481 731 504 731 q 394 790 458 731 q 331 867 331 850 q 357 876 331 876 m 675 840 q 758 813 713 840 q 804 746 804 786 q 793 715 804 726 q 764 704 782 704 q 725 725 746 704 q 680 783 704 746 q 656 828 656 821 q 675 840 656 840 m 914 382 q 965 351 949 365 q 982 322 982 338 q 972 276 982 306 q 950 96 950 210 q 991 -17 950 10 q 1099 -43 1032 -43 q 1246 -15 1189 -43 q 1326 133 1303 13 q 1345 171 1333 171 q 1358 132 1357 171 q 1372 20 1360 63 q 1383 -32 1383 -22 q 1298 -103 1383 -75 q 1111 -131 1213 -131 q 900 63 900 -131 q 903 192 900 128 l 908 293 q 889 379 908 343 l 775 365 q 836 288 836 313 q 831 272 836 281 q 782 193 797 225 q 678 38 738 103 q 559 -58 618 -26 q 485 -90 500 -90 q 471 -83 471 -90 q 486 -64 471 -75 q 677 132 599 7 q 756 338 756 257 q 753 363 756 351 l 747 361 q 726 332 740 332 q 697 382 706 332 q 665 519 678 486 q 629 576 653 553 q 618 597 618 588 q 638 607 618 607 q 692 597 658 607 q 858 619 769 600 q 967 651 947 639 q 1012 663 988 663 q 1084 631 1036 663 q 1132 585 1132 600 q 1108 557 1132 575 q 1063 504 1085 539 q 1042 455 1042 469 q 1051 429 1042 440 q 1061 411 1061 418 q 1035 398 1061 404 q 914 382 1010 392 m 749 394 q 872 414 817 401 q 943 435 928 426 q 969 468 958 444 q 985 526 979 492 q 990 568 990 560 q 944 593 990 593 q 717 564 899 593 l 749 394 m 413 115 q 597 267 571 267 q 603 257 603 267 q 582 222 603 247 q 382 -39 413 26 q 341 -85 358 -85 q 304 -46 324 -85 q 285 7 285 -7 q 306 50 285 21 q 338 115 326 79 q 359 255 350 151 q 368 431 368 358 q 355 461 368 461 q 206 403 342 461 q 156 390 178 390 q 106 415 133 390 q 78 447 78 439 q 88 458 78 456 q 146 460 99 460 q 266 486 193 460 q 363 544 339 513 q 410 576 388 576 q 467 559 432 576 q 503 526 503 542 q 477 490 503 511 q 438 397 451 469 q 413 115 425 324 z "},"陶":{"ha":1389,"x_min":239,"x_max":1260,"o":"m 686 722 q 631 668 657 689 q 595 647 606 647 q 585 655 585 647 q 597 679 585 663 q 719 928 719 851 q 716 956 719 942 q 713 982 713 969 q 738 994 713 994 q 807 976 763 994 q 851 936 851 958 q 838 917 851 925 q 788 855 824 908 q 701 740 753 801 q 885 760 769 739 q 1085 813 1000 782 q 1104 817 1096 817 q 1194 779 1128 817 q 1260 722 1260 742 q 1245 695 1260 713 q 1225 655 1231 678 q 1219 548 1219 632 q 1217 322 1219 464 q 1210 126 1214 179 q 1186 12 1206 72 q 1140 -87 1167 -49 q 1092 -141 1114 -126 q 1056 -156 1071 -156 q 1029 -124 1040 -156 q 956 17 997 -35 q 947 33 947 26 q 954 39 947 39 q 999 23 961 39 q 1055 7 1036 7 q 1084 23 1074 7 q 1108 88 1094 39 q 1132 238 1122 136 q 1142 437 1142 340 q 1135 622 1142 533 q 1108 724 1129 710 q 1053 739 1086 739 q 944 731 1019 739 q 821 714 868 722 q 745 706 774 706 q 686 722 717 706 m 342 785 q 346 356 346 639 q 330 -17 346 74 q 292 -107 314 -107 q 260 -64 278 -107 q 243 7 243 -21 q 268 121 243 35 q 283 261 276 151 q 289 504 289 371 q 281 699 289 638 q 256 779 272 760 q 239 811 239 799 q 260 828 239 828 q 311 817 282 828 q 485 888 440 838 q 517 900 496 900 q 581 880 539 900 q 624 844 624 860 q 590 810 624 828 q 516 731 557 793 q 475 635 475 668 q 492 578 475 626 q 527 494 510 529 q 544 435 544 458 q 534 387 544 411 q 513 363 524 363 q 488 380 503 363 q 427 435 472 397 q 382 478 382 472 q 409 478 382 483 q 454 474 436 474 q 472 484 472 474 q 458 536 472 494 q 438 589 443 578 q 432 620 432 600 q 444 693 432 640 q 467 772 457 746 q 478 804 478 799 q 472 810 478 810 q 420 799 467 810 q 342 785 374 788 m 801 225 l 928 250 q 915 301 926 283 q 903 328 903 319 q 918 340 903 340 q 968 328 933 340 q 1003 296 1003 315 q 1000 281 1003 290 q 983 179 989 253 q 954 106 978 106 q 929 211 931 106 q 704 160 800 189 q 590 114 608 131 q 561 97 572 97 q 535 121 550 97 q 519 158 519 144 q 529 179 519 171 q 558 244 558 203 l 557 271 q 560 286 557 279 q 571 293 564 293 q 597 269 578 293 q 614 185 617 246 l 743 213 l 747 357 q 664 339 693 346 q 617 332 635 332 q 580 343 599 332 q 561 362 561 354 q 585 371 561 369 q 749 396 649 374 q 750 460 750 428 q 740 506 750 492 q 683 514 714 508 q 596 453 606 453 q 586 461 586 453 q 594 481 586 469 q 665 610 665 574 l 663 629 q 674 644 663 644 q 717 628 686 644 q 749 600 749 611 q 742 582 749 589 q 711 546 735 575 q 819 571 753 547 q 926 594 886 594 q 958 586 944 594 q 972 568 972 578 q 962 552 972 558 q 904 534 951 546 q 789 511 857 522 q 816 475 821 496 q 810 410 811 454 l 922 439 q 990 447 958 447 q 1038 434 1022 447 q 1054 413 1054 421 q 1007 393 1054 397 q 807 369 889 383 l 801 225 z "},"新":{"ha":1389,"x_min":86,"x_max":1318,"o":"m 624 929 q 613 894 624 907 q 588 882 603 882 q 548 903 572 882 q 493 961 524 925 q 463 1004 463 997 q 482 1015 463 1015 q 544 1005 501 1015 q 606 976 588 994 q 624 929 624 958 m 882 547 q 1174 607 964 553 q 1232 613 1194 613 q 1294 595 1269 613 q 1318 563 1318 578 q 1271 539 1318 539 q 1063 521 1178 539 q 1106 461 1106 496 q 1102 443 1106 451 q 1096 374 1099 435 q 1093 253 1093 314 l 1093 156 q 1078 -112 1093 13 q 1036 -236 1063 -236 q 1019 -208 1025 -236 q 1013 -53 1013 -179 l 1019 304 q 1001 511 1019 439 q 947 508 981 508 q 879 521 913 508 q 819 223 860 328 q 709 58 778 118 q 619 -1 640 -1 q 611 6 611 -1 q 622 25 611 14 q 724 155 676 81 q 793 360 771 229 q 815 589 815 492 q 785 728 815 686 q 775 751 775 742 q 799 765 775 765 q 850 761 822 765 q 1029 910 1015 857 q 1050 936 1036 936 q 1118 903 1067 936 q 1169 854 1169 869 q 1142 835 1169 839 q 883 747 1083 825 q 890 678 890 721 q 882 547 890 636 m 688 854 q 722 844 704 854 q 740 824 740 835 q 725 806 740 813 q 562 769 710 800 q 380 739 414 739 q 315 748 346 739 q 283 769 283 757 q 328 782 283 781 q 533 820 399 786 q 688 854 667 854 m 558 582 q 693 603 667 603 q 731 597 719 603 q 742 582 742 590 q 689 554 742 561 l 500 522 q 540 469 540 494 q 538 415 540 460 q 631 434 600 426 q 677 442 661 442 q 706 433 693 442 q 718 414 718 424 q 689 392 718 394 q 536 372 618 388 l 533 281 q 565 282 550 282 q 652 264 619 282 q 685 218 685 246 q 678 189 685 204 q 659 174 671 174 q 632 183 647 174 q 533 267 617 193 l 535 142 q 513 19 535 72 q 474 -33 492 -33 q 443 -11 456 -33 q 389 67 415 36 q 363 103 363 97 q 370 110 363 110 q 400 103 378 110 q 438 96 422 96 q 462 108 454 96 q 474 188 469 121 q 479 293 479 254 q 478 363 479 332 q 356 335 428 353 q 268 318 283 318 q 216 332 240 318 q 192 355 192 346 q 239 368 192 364 q 475 404 286 372 q 456 514 469 493 q 228 463 268 476 q 162 449 188 449 q 111 472 136 449 q 86 503 86 494 q 92 515 86 513 q 127 517 97 517 q 265 531 157 517 q 517 574 374 546 q 581 742 569 669 q 593 760 583 760 q 631 740 603 760 q 658 710 658 721 q 642 685 658 699 q 558 582 625 671 m 458 632 q 452 601 458 615 q 430 588 446 588 q 385 626 414 588 q 357 683 357 665 q 373 700 357 700 q 424 683 389 700 q 458 632 458 665 m 296 279 q 321 224 321 279 q 303 134 321 182 q 265 65 285 86 q 236 44 244 44 q 207 100 207 44 q 226 163 207 131 q 281 268 256 204 q 296 279 285 279 z "},"许":{"ha":1389,"x_min":89,"x_max":1350,"o":"m 956 400 q 1058 421 1024 411 q 1223 447 1165 447 q 1315 422 1281 447 q 1350 381 1350 396 q 1278 357 1350 357 l 1146 361 q 956 349 1056 361 q 953 76 953 183 q 938 -142 953 -31 q 903 -253 924 -253 q 888 -229 893 -253 q 878 -144 882 -206 q 874 -35 874 -83 l 881 338 q 669 301 757 319 q 613 296 639 296 q 560 314 586 296 q 535 339 535 332 q 541 348 535 346 q 555 349 547 350 q 567 349 563 349 q 683 360 592 349 q 881 388 775 371 q 854 608 883 565 q 763 624 797 603 q 665 519 715 558 q 600 481 614 481 q 596 485 596 481 q 618 518 596 494 q 766 741 708 617 q 824 929 824 865 q 822 947 824 938 q 819 965 819 956 q 838 988 819 988 q 903 961 857 988 q 949 917 949 935 q 934 890 949 908 q 866 783 919 872 q 781 651 813 694 q 907 679 832 658 q 1019 715 982 700 q 1099 731 1057 731 q 1163 722 1142 731 q 1185 701 1185 713 q 1165 678 1185 689 q 1055 646 1144 668 q 913 615 965 624 q 969 556 969 579 q 967 538 969 549 q 956 400 956 499 m 388 910 q 499 882 461 910 q 538 813 538 854 q 503 771 538 771 q 437 799 479 771 q 356 856 394 828 q 317 897 317 883 q 388 910 317 910 m 421 133 q 560 215 540 206 q 590 225 581 225 q 600 217 600 225 q 576 190 600 210 q 451 77 506 133 q 378 -11 396 21 q 337 -56 354 -56 q 303 -22 319 -56 q 286 37 286 13 q 310 78 286 61 q 339 126 318 83 q 367 283 360 168 q 374 436 374 397 q 370 492 374 475 q 356 508 367 508 q 286 476 346 508 q 215 441 226 444 q 186 438 203 438 q 115 457 140 438 q 89 489 89 476 q 138 501 89 501 q 264 527 188 501 q 361 583 340 553 q 406 614 382 614 q 465 601 429 614 q 501 574 501 589 q 476 535 501 558 q 421 133 425 485 z "},"要":{"ha":1389,"x_min":85,"x_max":1385,"o":"m 903 342 l 1143 378 q 1239 386 1199 386 q 1349 354 1313 386 q 1385 303 1385 322 q 1333 285 1385 285 q 1258 291 1300 285 q 1116 297 1217 297 q 907 293 1015 297 q 810 121 878 208 q 1074 -39 1026 28 q 1121 -164 1121 -106 q 1103 -192 1121 -192 q 1022 -135 1076 -192 q 765 74 886 4 q 555 -57 675 -11 q 317 -103 435 -103 q 240 -90 240 -103 q 297 -68 240 -76 q 700 104 553 -33 q 549 155 604 144 q 493 183 493 165 q 533 254 493 194 q 266 215 333 229 q 173 201 199 201 q 116 222 147 201 q 85 251 85 243 q 94 263 85 258 q 145 267 104 267 q 558 301 186 267 q 611 433 607 403 l 481 413 q 464 390 478 390 q 435 428 450 390 q 347 603 367 585 q 326 633 326 621 q 349 646 326 646 q 408 631 372 646 l 571 654 q 540 824 561 761 q 482 835 508 824 q 456 856 456 847 q 504 871 456 865 q 657 897 553 876 q 816 930 761 917 q 910 943 871 943 q 967 933 949 943 q 986 911 986 924 q 815 851 986 869 q 864 788 864 814 q 857 764 864 776 q 829 694 850 751 q 960 722 940 714 q 1001 731 981 731 q 1081 692 1021 731 q 1142 638 1142 654 q 1118 606 1142 621 q 1070 572 1094 592 q 1039 542 1046 551 q 970 456 986 471 q 941 440 954 440 q 914 464 928 440 q 881 472 908 472 q 828 468 853 472 l 661 442 q 686 406 686 418 q 678 385 686 393 q 625 307 669 376 q 819 331 713 317 q 839 363 822 363 q 903 342 856 363 m 768 846 q 599 826 643 831 q 624 774 618 810 q 628 663 629 739 l 764 683 q 774 776 774 739 q 768 846 774 814 m 767 503 q 872 515 849 515 q 894 508 882 515 q 917 501 907 501 q 962 564 939 501 q 985 642 985 626 q 978 660 985 657 q 944 664 971 664 q 817 653 917 664 q 767 503 789 571 m 757 646 q 628 625 685 638 l 622 478 l 719 494 q 757 646 746 590 m 588 471 q 575 617 582 554 q 435 597 468 597 l 474 451 l 588 471 m 813 286 q 597 263 710 276 q 565 206 565 210 q 597 188 565 196 q 739 146 675 169 q 813 286 789 213 z "},"有":{"ha":1389,"x_min":97,"x_max":1297,"o":"m 703 778 q 990 822 858 797 q 1165 847 1122 847 q 1252 827 1207 847 q 1297 790 1297 807 q 1269 763 1297 772 q 1192 753 1242 753 l 1089 756 q 681 722 936 756 q 579 543 624 610 q 597 535 590 540 q 842 588 747 554 q 884 597 864 597 q 956 575 904 597 q 1007 528 1007 553 q 996 494 1007 517 q 985 438 985 472 q 1000 196 985 403 q 1015 -24 1015 -11 q 980 -166 1015 -106 q 922 -226 944 -226 q 894 -197 907 -226 q 857 -129 882 -168 q 813 -71 832 -90 q 794 -44 794 -51 q 803 -36 794 -36 q 840 -45 811 -36 q 888 -54 869 -54 q 913 -40 907 -54 q 922 15 919 -26 q 924 154 924 56 q 910 375 924 253 q 879 514 897 497 q 828 531 861 531 q 767 524 796 531 q 610 499 669 496 q 608 360 610 407 q 749 390 707 378 q 785 394 764 394 q 825 387 807 394 q 843 367 843 379 q 778 334 843 343 q 678 325 713 325 q 608 329 643 325 q 601 179 607 274 q 740 206 700 196 q 798 215 781 215 q 832 208 815 215 q 849 189 849 201 q 792 153 849 165 q 686 142 736 142 q 599 150 636 142 q 562 -61 589 11 q 514 -133 535 -133 q 490 -107 500 -133 q 481 -53 481 -81 q 493 3 481 -26 q 553 428 553 146 q 549 496 553 474 q 277 207 410 303 q 106 111 144 111 q 97 119 97 111 q 129 151 97 128 q 405 414 279 264 q 596 714 531 564 q 335 674 371 683 q 272 664 300 664 q 206 684 244 664 q 167 715 167 704 q 201 726 167 726 q 615 765 288 726 q 663 950 663 888 q 653 993 663 978 q 643 1022 643 1008 q 666 1036 643 1036 q 744 1009 689 1036 q 799 960 799 982 q 786 936 799 947 q 703 778 768 918 z "}}}
